<mxfile host="app.diagrams.net" modified="2023-11-08T06:12:36.536Z" agent="Mozilla/5.0 (Macintosh; Intel Mac OS X 10_15_7) AppleWebKit/537.36 (KHTML, like Gecko) Chrome/119.0.0.0 Safari/537.36" version="21.6.8" etag="zY_1FmRQ9j-tFhHoi3MU" type="github">
  <diagram name="第 1 页" id="FwAKxY-rjFnkI9Jm1KPl">
    <mxGraphModel>
      <root>
        <mxCell id="0" />
        <mxCell id="1" parent="0" />
      </root>
    </mxGraphModel>
  </diagram>
</mxfile>
